<svg width="32" height="32" viewBox="0 0 32 32" xmlns="http://www.w3.org/2000/svg">
  <defs>
    <linearGradient id="gradient" x1="0%" y1="0%" x2="100%" y2="100%">
      <stop offset="0%" stop-color="#3B82F6"/>
      <stop offset="100%" stop-color="#9333EA"/>
    </linearGradient>
  </defs>
  
  <!-- Rounded square background with gradient -->
  <rect x="2" y="2" width="28" height="28" rx="4" ry="4" fill="url(#gradient)"/>
  
  <!-- Actual Lucide Store icon - properly centered and bigger -->
  <g transform="translate(5.2, 5.2) scale(0.9)" fill="none" stroke="white" stroke-width="1.8" stroke-linecap="round" stroke-linejoin="round">
    <!-- Store building outline -->
    <path d="m2 7 4.41-4.41A2 2 0 0 1 7.83 2h8.34a2 2 0 0 1 1.42.59L22 7"/>
    <path d="M4 12v8a2 2 0 0 0 2 2h12a2 2 0 0 0 2-2v-8"/>
    <path d="M15 22v-4a2 2 0 0 0-2-2h-2a2 2 0 0 0-2 2v4"/>
    <path d="M2 7h20"/>
    <path d="M22 7v3a2 2 0 0 1-2 2v0a2.18 2.18 0 0 1-2-2v0a2.18 2.18 0 0 1-2 2v0a2.18 2.18 0 0 1-2-2v0a2.18 2.18 0 0 1-2 2v0a2.18 2.18 0 0 1-2-2v0a2.18 2.18 0 0 1-2 2v0a2.18 2.18 0 0 1-2-2v0a2.18 2.18 0 0 1-2 2v0a2 2 0 0 1-2-2V7"/>
  </g>
</svg>