<svg width="128" height="128" viewBox="0 0 128 128" xmlns="http://www.w3.org/2000/svg">
  <defs>
    <linearGradient id="gradient" x1="0%" y1="0%" x2="100%" y2="100%">
      <stop offset="0%" stop-color="#3B82F6"/>
      <stop offset="100%" stop-color="#9333EA"/>
    </linearGradient>
  </defs>
  
  <!-- Rounded square background with gradient -->
  <rect x="8" y="8" width="112" height="112" rx="16" ry="16" fill="url(#gradient)"/>
  
  <!-- Store icon - converted from strokes to thick filled paths -->
  <g fill="white">
    <!-- Store building roof outline - thick filled path -->
    <path d="M28 36 L45.64 18.36 C48.83 15.17 53.17 13.33 57.73 13.33 L70.27 13.33 C74.83 13.33 79.17 15.17 82.36 18.36 L100 36 L92 36 L77.04 21.04 C75.35 19.35 73.04 18.4 70.62 18.4 L57.38 18.4 C54.96 18.4 52.65 19.35 50.96 21.04 L36 36 L28 36 Z"/>
    
    <!-- Main store building outline - thick filled path -->
    <path d="M20 64 L20 92 C20 97.52 24.48 102 30 102 L98 102 C103.52 102 108 97.52 108 92 L108 64 L100 64 L100 92 C100 93.1 99.1 94 98 94 L30 94 C28.9 94 28 93.1 28 92 L28 64 L20 64 Z"/>
    
    <!-- Store door - thick filled path -->
    <path d="M68 102 L68 82 C68 78.69 65.31 76 62 76 L50 76 C46.69 76 44 78.69 44 82 L44 102 L52 102 L52 82 C52 83.1 52.9 84 54 84 L58 84 C59.1 84 60 83.1 60 82 L60 102 L68 102 Z"/>
    
    <!-- Horizontal line across - thick filled path -->
    <rect x="28" y="32" width="72" height="8"/>
    
    <!-- Store awning scallops - thick filled paths -->
    <path d="M100 36 L100 48 C100 53.52 95.52 58 90 58 C87.22 58 84.78 56.67 83.17 54.83 C81.56 56.67 79.11 58 76.33 58 C73.56 58 71.11 56.67 69.5 54.83 C67.89 56.67 65.44 58 62.67 58 C59.89 58 57.44 56.67 55.83 54.83 C54.22 56.67 51.78 58 49 58 C46.22 58 43.78 56.67 42.17 54.83 C40.56 56.67 38.11 58 35.33 58 C32.56 58 30.11 56.67 28.5 54.83 C26.89 56.67 24.44 58 21.67 58 C16.15 58 11.67 53.52 11.67 48 L11.67 36 L19.67 36 L19.67 48 C19.67 49.1 20.57 50 21.67 50 C22.77 50 23.67 49.1 23.67 48 L23.67 36 L31.67 36 L31.67 48 C31.67 49.1 32.57 50 33.67 50 C34.77 50 35.67 49.1 35.67 48 L35.67 36 L43.67 36 L43.67 48 C43.67 49.1 44.57 50 45.67 50 C46.77 50 47.67 49.1 47.67 48 L47.67 36 L55.67 36 L55.67 48 C55.67 49.1 56.57 50 57.67 50 C58.77 50 59.67 49.1 59.67 48 L59.67 36 L67.67 36 L67.67 48 C67.67 49.1 68.57 50 69.67 50 C70.77 50 71.67 49.1 71.67 48 L71.67 36 L79.67 36 L79.67 48 C79.67 49.1 80.57 50 81.67 50 C82.77 50 83.67 49.1 83.67 48 L83.67 36 L91.67 36 L91.67 48 C91.67 49.1 92.57 50 93.67 50 C94.77 50 95.67 49.1 95.67 48 L95.67 36 L100 36 Z"/>
  </g>
</svg>